<svg xmlns="http://www.w3.org/2000/svg" viewBox="0 0 226.12 47.06"><defs><style>.cls-1,.cls-2{fill:#0a66c2;}.cls-2{stroke:#0a66c2;stroke-miterlimit:10;stroke-width:3px;}</style></defs><g id="Layer_2" data-name="Layer 2"><g id="Layer_1-2" data-name="Layer 1"><path class="cls-1" d="M58.67,50.78V7.42H77a16.76,16.76,0,0,1,7.33,1.49,10.88,10.88,0,0,1,4.74,4.21,12.32,12.32,0,0,1,1.66,6.52,10.48,10.48,0,0,1-1.6,5.62,11.37,11.37,0,0,1-5.09,4.22V25.81a14.87,14.87,0,0,1,5.06,3,10.07,10.07,0,0,1,2.62,4,14.08,14.08,0,0,1,.76,4.65q0,6.24-4.11,9.75T77,50.78Zm8-26.54H77.41a5.33,5.33,0,0,0,3.9-1.42,5,5,0,0,0,1.46-3.7,4.67,4.67,0,0,0-1.46-3.61,5.55,5.55,0,0,0-3.9-1.34H66.64Zm0,19.56H77.82a6.88,6.88,0,0,0,4.92-1.72,6,6,0,0,0,1.83-4.57,6,6,0,0,0-1.83-4.59,6.81,6.81,0,0,0-4.92-1.75H66.64Z" transform="translate(0 -5.22)"/><path class="cls-1" d="M113.32,51.48a16.34,16.34,0,0,1-8.58-2.21,15.21,15.21,0,0,1-5.73-6,17.42,17.42,0,0,1-2-8.39,17,17,0,0,1,2.09-8.47,15.84,15.84,0,0,1,5.65-5.84,15.14,15.14,0,0,1,8-2.16,16.43,16.43,0,0,1,6.55,1.22,14,14,0,0,1,4.8,3.38,15.23,15.23,0,0,1,3,4.92,16.64,16.64,0,0,1,1,6,16.09,16.09,0,0,1-.09,1.72,7.61,7.61,0,0,1-.32,1.54H103.31V31.29h20.14L119.79,34a8.36,8.36,0,0,0-.21-4.77A6.85,6.85,0,0,0,117,25.93a7.39,7.39,0,0,0-4.28-1.22,7.4,7.4,0,0,0-7.07,4.71,12,12,0,0,0-.73,5.53,10.33,10.33,0,0,0,.79,5.15,7.67,7.67,0,0,0,3,3.47,8.73,8.73,0,0,0,4.62,1.22,8.48,8.48,0,0,0,4.46-1.11,7.9,7.9,0,0,0,2.88-3l6.17,3a11.08,11.08,0,0,1-2.91,4,14.63,14.63,0,0,1-4.72,2.73A17.3,17.3,0,0,1,113.32,51.48Z" transform="translate(0 -5.22)"/><path class="cls-1" d="M133.87,50.78V19.12h7.22v6.23l-.58-1.11a8.35,8.35,0,0,1,3.63-4.33,11.48,11.48,0,0,1,5.91-1.49,12.46,12.46,0,0,1,6.2,1.52,10.75,10.75,0,0,1,4.22,4.21A12.64,12.64,0,0,1,162,30.41V50.78h-7.62V32.22a7.43,7.43,0,0,0-.82-3.61,5.67,5.67,0,0,0-2.27-2.33,7.11,7.11,0,0,0-6.63,0,5.67,5.67,0,0,0-2.27,2.33,7.43,7.43,0,0,0-.82,3.61V50.78Z" transform="translate(0 -5.22)"/><path class="cls-1" d="M183.69,51.48a16.51,16.51,0,0,1-8.49-2.18,16.11,16.11,0,0,1-5.91-5.94,16.47,16.47,0,0,1-2.18-8.47,16.53,16.53,0,0,1,2.15-8.44,15.64,15.64,0,0,1,5.91-5.87,16.76,16.76,0,0,1,8.52-2.16,16.35,16.35,0,0,1,6.29,1.2,15.32,15.32,0,0,1,5,3.28,12.2,12.2,0,0,1,3.06,4.89l-6.69,3a7.82,7.82,0,0,0-2.94-3.87,8.17,8.17,0,0,0-4.75-1.43,8.31,8.31,0,0,0-4.45,1.2A8.21,8.21,0,0,0,176.18,30a10.85,10.85,0,0,0-1.1,4.92,10.8,10.8,0,0,0,1.1,4.95,8.49,8.49,0,0,0,3.06,3.38,8.23,8.23,0,0,0,4.45,1.22A7.88,7.88,0,0,0,188.44,43a8.36,8.36,0,0,0,2.94-3.9l6.69,3a12.69,12.69,0,0,1-3,4.8,14.78,14.78,0,0,1-5,3.32A16.69,16.69,0,0,1,183.69,51.48Z" transform="translate(0 -5.22)"/><path class="cls-2" d="M39.11,50.78H8a2.17,2.17,0,0,0-.24-.07,7.28,7.28,0,0,1-6-5.43c-.11-.34-.17-.69-.25-1V26.61a1.09,1.09,0,0,0,.07-.24A7.22,7.22,0,0,1,4,21.93q7.24-6.57,14.49-13.14a7.25,7.25,0,0,1,10.15,0c4.8,4.34,9.59,8.71,14.4,13.05a7.37,7.37,0,0,1,2.54,5.78c0,5.07,0,10.15,0,15.22a9.67,9.67,0,0,1-.09,1.42,7.33,7.33,0,0,1-4.64,6A12.87,12.87,0,0,1,39.11,50.78ZM23.42,46.56h14.5a2.89,2.89,0,0,0,3-3q0-8,0-16a3.36,3.36,0,0,0-1.15-2.55c-4.75-4.34-9.54-8.64-14.28-13a3.08,3.08,0,0,0-4.1,0c-1.46,1.31-2.91,2.64-4.37,4Q12,20.63,6.89,25.22A2.43,2.43,0,0,0,6,26.64a6.41,6.41,0,0,0-.1,1.16V43.36a3,3,0,0,0,3.19,3.2Z" transform="translate(0 -5.22)"/><path class="cls-1" d="M203.77,15.57V7.42h7.69v8.15Zm0,35.21V19.12h7.69V50.78Z" transform="translate(0 -5.22)"/><path class="cls-1" d="M218.44,50.78V6.72h7.68V50.78Z" transform="translate(0 -5.22)"/></g></g></svg>